<svg viewBox="0 0 660 130" xmlns="http://www.w3.org/2000/svg" font-family="sans-serif" font-size="11" style="background:#f5f3ef;border-radius:6px;padding:20px">
  <defs>
    <marker id="db1" markerWidth="8" markerHeight="8" refX="6" refY="3" orient="auto"><path d="M0,0 L0,6 L8,3 z" fill="#a05c00"/></marker>
  </defs>
  <text x="330" y="126" text-anchor="middle" font-size="11" font-weight="600" letter-spacing="2" fill="#8a837c">PHASE BACKWARD — DEBRUITAGE PROGRESSIF PAR LE RESEAU (U-NET)</text>
  <!-- U-Net label -->
  <rect x="4" y="80" width="140" height="44" rx="5" fill="#fdf0dc" stroke="#a05c00" stroke-width="1.2" stroke-dasharray="4,2"/>
  <text x="74" y="100" text-anchor="middle" font-weight="600" fill="#a05c00">Reseau U-Net</text>
  <text x="74" y="115" text-anchor="middle" font-size="10" fill="#a05c00">predit le bruit eps_theta(xt, t)</text>
  <!-- xT start -->
  <rect x="4" y="20" width="90" height="54" rx="5" fill="#e8e3db" stroke="#8a837c" stroke-width="1.5" stroke-dasharray="4,2"/>
  <text x="49" y="44" text-anchor="middle" font-weight="600" fill="#4a4540">xT</text>
  <text x="49" y="60" text-anchor="middle" fill="#4a4540" opacity=".7">Bruit pur</text>
  <line x1="96" y1="47" x2="130" y2="47" stroke="#a05c00" stroke-width="1.5" marker-end="url(#db1)"/>
  <text x="113" y="40" text-anchor="middle" font-size="10" fill="#a05c00">-bruit</text>
  <!-- denoised T-1 -->
  <rect x="132" y="24" width="82" height="46" rx="5" fill="#faeeda" stroke="#a05c00" stroke-width="1"/>
  <text x="173" y="43" text-anchor="middle" font-weight="600" fill="#a05c00">x(T-1)</text>
  <text x="173" y="58" text-anchor="middle" fill="#a05c00" opacity=".7">Moins de bruit</text>
  <line x1="216" y1="47" x2="250" y2="47" stroke="#a05c00" stroke-width="1.5" marker-end="url(#db1)"/>
  <text x="233" y="40" text-anchor="middle" font-size="10" fill="#a05c00">-bruit</text>
  <!-- denoised partiel -->
  <rect x="252" y="26" width="82" height="42" rx="5" fill="#f5e8c8" stroke="#a05c00" stroke-width="1"/>
  <text x="293" y="44" text-anchor="middle" font-weight="600" fill="#a05c00">x(T/2)</text>
  <text x="293" y="57" text-anchor="middle" fill="#a05c00" opacity=".7">Structure emerge</text>
  <!-- dots -->
  <text x="368" y="52" text-anchor="middle" font-size="20" fill="#a05c00" letter-spacing="4">. . .</text>
  <line x1="404" y1="47" x2="438" y2="47" stroke="#a05c00" stroke-width="1.5" marker-end="url(#db1)"/>
  <text x="421" y="40" text-anchor="middle" font-size="10" fill="#a05c00">-bruit</text>
  <!-- x0 final -->
  <rect x="440" y="20" width="90" height="54" rx="5" fill="#e1f3ed" stroke="#0e6e55" stroke-width="1.5"/>
  <text x="485" y="44" text-anchor="middle" font-weight="600" fill="#0e6e55">x0</text>
  <text x="485" y="60" text-anchor="middle" fill="#0e6e55" opacity=".7">Image generee</text>
  <!-- note conditionnement -->
  <rect x="548" y="20" width="108" height="80" rx="5" fill="#eeedfd" stroke="#4e3fbf" stroke-width="1"/>
  <text x="602" y="44" text-anchor="middle" font-weight="600" fill="#4e3fbf">Guidage</text>
  <text x="602" y="60" text-anchor="middle" fill="#4e3fbf" opacity=".8">Texte, classe</text>
  <text x="602" y="75" text-anchor="middle" fill="#4e3fbf" opacity=".8">ou image</text>
  <text x="602" y="90" text-anchor="middle" font-size="10" fill="#4e3fbf" opacity=".6">Classifier-free</text>
  <text x="602" y="100" text-anchor="middle" font-size="10" fill="#4e3fbf" opacity=".6">guidance</text>
</svg>
