<svg viewBox="0 0 660 210" xmlns="http://www.w3.org/2000/svg" font-family="sans-serif" font-size="12" style="background:#f5f3ef;border-radius:6px;padding:20px">
  <defs>
    <marker id="v1" markerWidth="8" markerHeight="8" refX="6" refY="3" orient="auto"><path d="M0,0 L0,6 L8,3 z" fill="#8a837c"/></marker>
    <marker id="v2" markerWidth="8" markerHeight="8" refX="6" refY="3" orient="auto"><path d="M0,0 L0,6 L8,3 z" fill="#0e6e55"/></marker>
  </defs>
  <text x="330" y="205" text-anchor="middle" font-size="11" font-weight="600" letter-spacing="2" fill="#8a837c">ARCHITECTURE VAE — PIPELINE COMPLET</text>
  <!-- Image entree -->
  <rect x="4" y="65" width="88" height="80" rx="5" fill="#e1f3ed" stroke="#0e6e55" stroke-width="1.5"/>
  <text x="48" y="96" text-anchor="middle" font-weight="600" fill="#0e6e55">Image</text>
  <text x="48" y="112" text-anchor="middle" fill="#0e6e55" opacity=".7">d'entree</text>
  <text x="48" y="126" text-anchor="middle" font-size="11" fill="#0e6e55" opacity=".5">x</text>
  <line x1="94" y1="105" x2="126" y2="105" stroke="#8a837c" stroke-width="1.5" marker-end="url(#v1)"/>
  <!-- Encodeur -->
  <rect x="128" y="50" width="120" height="110" rx="5" fill="#e1f3ed" stroke="#0e6e55" stroke-width="1.5"/>
  <text x="188" y="95" text-anchor="middle" font-weight="600" fill="#0e6e55">Encodeur</text>
  <text x="188" y="112" text-anchor="middle" fill="#0e6e55" opacity=".7">q(z | x)</text>
  <text x="188" y="128" text-anchor="middle" font-size="11" fill="#0e6e55" opacity=".6">Compresse</text>
  <text x="188" y="141" text-anchor="middle" font-size="11" fill="#0e6e55" opacity=".6">l'image</text>
  <line x1="250" y1="90" x2="282" y2="75" stroke="#8a837c" stroke-width="1.2" marker-end="url(#v1)"/>
  <line x1="250" y1="120" x2="282" y2="138" stroke="#8a837c" stroke-width="1.2" marker-end="url(#v1)"/>
  <!-- mu sigma -->
  <rect x="284" y="34" width="110" height="50" rx="5" fill="#f5f3ef" stroke="#8a837c" stroke-width="1"/>
  <text x="339" y="56" text-anchor="middle" font-weight="600" fill="#4a4540">mu (moyenne)</text>
  <text x="339" y="72" text-anchor="middle" font-size="11" fill="#8a837c">sigma (variance)</text>
  <!-- Espace latent z -->
  <rect x="284" y="116" width="110" height="50" rx="5" fill="#eeedfd" stroke="#4e3fbf" stroke-width="1.5"/>
  <text x="339" y="136" text-anchor="middle" font-weight="600" fill="#4e3fbf">Espace latent</text>
  <text x="339" y="153" text-anchor="middle" fill="#4e3fbf">z</text>
  <!-- reparametrisation -->
  <text x="339" y="183" text-anchor="middle" font-size="10" fill="#8a837c">z = mu + sigma x epsilon</text>
  <text x="339" y="195" text-anchor="middle" font-size="10" fill="#8a837c">epsilon ~ N(0,1)</text>
  <path d="M339 116 Q339 98 339 84" stroke="#4e3fbf" stroke-width="1" fill="none" stroke-dasharray="3,2" marker-end="url(#v2)"/>
  <line x1="396" y1="141" x2="428" y2="118" stroke="#0e6e55" stroke-width="1.5" marker-end="url(#v2)"/>
  <!-- Decodeur -->
  <rect x="430" y="50" width="120" height="110" rx="5" fill="#e1f3ed" stroke="#0e6e55" stroke-width="1.5"/>
  <text x="490" y="95" text-anchor="middle" font-weight="600" fill="#0e6e55">Decodeur</text>
  <text x="490" y="112" text-anchor="middle" fill="#0e6e55" opacity=".7">p(x | z)</text>
  <text x="490" y="128" text-anchor="middle" font-size="11" fill="#0e6e55" opacity=".6">Reconstruit</text>
  <text x="490" y="141" text-anchor="middle" font-size="11" fill="#0e6e55" opacity=".6">l'image</text>
  <line x1="552" y1="105" x2="584" y2="105" stroke="#8a837c" stroke-width="1.5" marker-end="url(#v1)"/>
  <!-- Image sortie -->
  <rect x="586" y="65" width="68" height="80" rx="5" fill="#e1f3ed" stroke="#0e6e55" stroke-width="1.5"/>
  <text x="620" y="98" text-anchor="middle" font-weight="600" fill="#0e6e55">Image</text>
  <text x="620" y="114" text-anchor="middle" fill="#0e6e55" opacity=".7">generee</text>
  <text x="620" y="128" text-anchor="middle" font-size="11" fill="#0e6e55" opacity=".5">x'</text>
</svg>
